<svg width="512" height="512" viewBox="0 0 512 512" fill="none" xmlns="http://www.w3.org/2000/svg">
<rect width="512" height="512" fill="#2A725A"/>
<path d="M255.351 448C225.046 448 198.061 443.891 174.395 435.674C150.728 427.457 130.67 415.289 114.219 399.17C97.7678 383.052 85.2131 363.141 76.5547 339.437C68.1849 315.417 64 287.605 64 256C64 224.711 68.1849 197.215 76.5547 173.511C85.2131 149.807 97.7678 129.896 114.219 113.778C130.67 97.3432 150.728 85.0173 174.395 76.8C198.061 68.2667 225.046 64 255.351 64C285.655 64 312.64 68.2667 336.307 76.8C360.262 85.0173 380.464 97.3432 396.915 113.778C413.655 129.896 426.354 149.807 435.012 173.511C443.671 197.215 448 224.711 448 256C448 287.605 443.671 315.417 435.012 339.437C426.354 363.141 413.655 383.052 396.915 399.17C380.464 415.289 360.262 427.457 336.307 435.674C312.64 443.891 285.655 448 255.351 448ZM255.351 393.007C286.521 393.007 312.352 388.109 332.843 378.311C353.623 368.514 369.209 353.501 379.599 333.274C389.989 313.047 395.184 287.289 395.184 256C395.184 225.027 389.989 199.427 379.599 179.2C369.209 158.973 353.623 143.96 332.843 134.163C312.063 124.365 286.232 119.467 255.351 119.467C224.469 119.467 198.638 124.365 177.858 134.163C157.366 143.96 141.926 158.973 131.536 179.2C121.434 199.111 116.383 224.711 116.383 256C116.383 287.289 121.434 313.047 131.536 333.274C141.926 353.501 157.366 368.514 177.858 378.311C198.638 388.109 224.469 393.007 255.351 393.007ZM241.93 311.941C245.682 311.941 249.723 311.309 254.052 310.044C258.381 308.78 262.422 306.884 266.174 304.356C270.214 301.827 273.822 298.667 276.997 294.874C280.171 290.765 282.769 286.025 284.789 280.652L283.923 246.519L289.984 249.837C287.098 254.578 282.769 258.054 276.997 260.267C271.224 262.479 265.019 264.217 258.381 265.481C251.743 266.746 245.393 268.168 239.333 269.748C233.56 271.328 228.654 273.857 224.613 277.333C220.861 280.494 218.985 285.235 218.985 291.556C218.985 298.509 221.15 303.723 225.479 307.2C230.097 310.36 235.581 311.941 241.93 311.941ZM222.882 347.97C214.223 347.97 205.565 346.39 196.906 343.23C188.537 340.069 181.466 335.012 175.693 328.059C169.921 320.79 167.035 311.151 167.035 299.141C167.035 287.763 169.344 278.756 173.962 272.119C178.868 265.165 185.073 259.635 192.577 255.526C200.081 251.417 208.162 248.415 216.821 246.519C225.479 244.306 233.849 242.568 241.93 241.304C253.475 239.723 262.277 238.143 268.338 236.563C274.399 234.667 278.584 232.612 280.893 230.4C283.202 227.872 284.356 224.553 284.356 220.444C284.356 216.652 283.49 213.333 281.759 210.489C280.027 207.328 277.141 204.8 273.1 202.904C269.06 201.007 263.865 200.059 257.515 200.059C252.609 200.059 247.702 200.849 242.796 202.43C237.89 203.694 233.56 206.38 229.808 210.489C226.056 214.598 223.459 220.919 222.016 229.452L173.529 215.23C174.972 204.484 178.291 195.319 183.486 187.733C188.97 179.832 195.608 173.511 203.4 168.77C211.481 163.714 220.284 160.079 229.808 157.867C239.621 155.338 249.723 154.074 260.113 154.074C274.832 154.074 287.098 156.286 296.911 160.711C307.012 164.82 315.094 170.825 321.154 178.726C327.215 186.311 331.545 195.319 334.142 205.748C337.028 215.862 338.471 227.081 338.471 239.407V278.281C338.471 283.654 338.471 288.869 338.471 293.926C338.76 298.667 338.904 303.565 338.904 308.622C338.904 313.363 338.904 318.578 338.904 324.267C339.193 329.64 339.337 335.802 339.337 342.756H297.777C297.2 335.17 296.478 327.743 295.612 320.474C295.035 312.889 294.458 305.62 293.881 298.667H286.954C284.645 309.728 280.171 318.894 273.533 326.163C267.184 333.432 259.536 338.963 250.589 342.756C241.642 346.232 232.406 347.97 222.882 347.97Z" fill="#FBF8F0"/>
</svg>
